<?xml version="1.0" standalone="no"?>
<!DOCTYPE svg PUBLIC "-//W3C//DTD SVG 20010904//EN"
 "http://www.w3.org/TR/2001/REC-SVG-20010904/DTD/svg10.dtd">
<svg version="1.0" xmlns="http://www.w3.org/2000/svg"
 width="1200.000000pt" height="1200.000000pt" viewBox="0 0 1200.000000 1200.000000"
 preserveAspectRatio="xMidYMid meet">
<metadata>
Created by potrace 1.16, written by Peter Selinger 2001-2019
</metadata>
<g transform="translate(0.000000,1200.000000) scale(0.100000,-0.100000)"
fill="#000000" stroke="none">
<path d="M0 6000 l0 -6000 6000 0 6000 0 0 6000 0 6000 -6000 0 -6000 0 0
-6000z m9000 2175 l0 -75 -3000 0 -3000 0 0 75 0 75 3000 0 3000 0 0 -75z
m-1750 -535 l0 -60 -65 0 -65 0 0 60 0 60 65 0 65 0 0 -60z m-3200 -125 l0
-85 100 0 100 0 0 -50 0 -50 -100 0 -100 0 0 -222 c0 -123 5 -230 10 -238 7
-11 33 -16 100 -18 l90 -4 0 -50 0 -50 -119 4 c-115 3 -121 4 -149 31 -46 44
-52 83 -52 326 l0 221 -65 0 -65 0 0 50 0 50 65 0 65 0 0 85 0 85 60 0 60 0 0
-85z m740 -100 c0 -18 1 -18 36 0 20 10 59 15 122 15 l92 0 0 -55 0 -55 -91 0
c-87 0 -92 -1 -120 -29 l-29 -29 0 -206 0 -206 75 0 75 0 0 -50 0 -50 -185 0
-185 0 0 50 0 50 50 0 50 0 0 240 0 240 -50 0 -50 0 0 50 0 50 105 0 c87 0
105 -3 105 -15z m885 4 c52 -15 91 -43 113 -82 14 -27 18 -69 22 -252 l5 -220
33 -10 c30 -9 32 -12 32 -57 l0 -48 -52 0 c-36 0 -61 6 -78 19 -24 19 -25 19
-48 0 -36 -28 -228 -27 -290 1 -62 28 -85 84 -80 194 4 103 27 151 88 183 38
20 58 23 157 23 l113 0 0 51 c0 95 -26 109 -196 109 l-114 0 0 50 0 50 128 0
c70 0 145 -5 167 -11z m644 -276 c42 -155 79 -279 82 -275 3 4 34 117 69 252
35 135 67 260 72 278 9 32 10 32 70 32 l60 0 -7 -27 c-7 -29 -132 -470 -166
-585 l-20 -68 -84 0 -84 0 -16 58 c-65 218 -175 607 -175 614 0 5 28 8 62 6
l62 -3 75 -282z m921 -3 l0 -290 100 0 100 0 0 -50 0 -51 -157 3 -158 3 0 285
0 285 -97 3 -98 3 0 49 0 50 155 0 155 0 0 -290z m910 240 l0 -50 -102 0
c-138 0 -152 -8 -156 -84 -2 -34 2 -64 8 -70 6 -6 49 -13 96 -17 90 -6 118
-18 158 -73 18 -24 21 -42 21 -131 0 -120 -11 -145 -85 -182 -39 -21 -59 -23
-180 -23 l-137 0 0 50 -1 50 117 0 c159 0 165 4 169 100 4 92 -4 100 -98 100
-84 0 -147 29 -172 80 -23 46 -24 169 -2 215 32 67 77 83 242 84 l122 1 0 -50z
m-1451 -1496 l31 -26 0 -434 0 -434 85 -170 c84 -168 85 -170 85 -246 0 -70
-2 -78 -29 -105 l-29 -29 -842 0 -842 0 -29 29 c-27 27 -29 35 -29 105 0 76 1
78 85 246 l85 170 0 433 c0 455 0 451 45 475 14 8 223 11 687 12 l666 0 31
-26z m1401 -2059 l0 -75 -2100 0 -2100 0 0 75 0 75 2100 0 2100 0 0 -75z"/>
<path d="M5476 7049 c-24 -19 -26 -26 -26 -94 0 -68 2 -76 25 -91 33 -22 191
-17 205 6 5 8 10 57 10 108 l0 92 -94 0 c-79 0 -97 -3 -120 -21z"/>
<path d="M5331 5832 c-6 -10 -7 -174 -4 -420 l6 -402 526 -2 526 -3 0 -25 0
-25 -535 -3 -535 -2 -68 -135 c-37 -74 -67 -137 -67 -140 0 -3 369 -5 820 -5
451 0 820 2 820 5 0 3 -33 69 -72 148 l-73 142 -5 440 -5 440 -662 3 c-625 2
-663 1 -672 -16z m1273 -58 c14 -13 16 -59 16 -345 0 -316 -1 -330 -20 -349
-20 -20 -33 -20 -598 -20 -507 0 -580 2 -600 16 -22 15 -22 15 -22 349 0 290
2 336 16 349 14 14 82 16 604 16 522 0 590 -2 604 -16z m-380 -1009 c3 -8 -2
-21 -10 -30 -13 -12 -49 -15 -214 -15 -165 0 -201 3 -214 15 -8 9 -13 22 -10
30 9 22 439 22 448 0z"/>
<path d="M5440 5430 l0 -310 560 0 560 0 0 310 0 310 -560 0 -560 0 0 -310z
m647 85 c49 -29 57 -60 23 -90 -13 -12 -20 -31 -20 -55 0 -24 7 -43 20 -55 38
-35 19 -70 -55 -100 -53 -23 -111 -13 -159 27 -67 55 -83 127 -45 205 42 88
149 118 236 68z"/>
<path d="M5924 5446 c-24 -24 -34 -43 -34 -65 0 -84 85 -146 151 -111 18 10
18 13 4 33 -19 27 -19 99 0 137 17 33 8 40 -52 40 -26 0 -43 -8 -69 -34z"/>
<path d="M5162 4558 l3 -53 835 0 835 0 3 53 3 52 -841 0 -841 0 3 -52z"/>
</g>
</svg>
